# Blender v2.92.0 OBJ File: ''
# www.blender.org
mtllib fish.mtl
o fish_fish.001
v 0.257524 0.846576 0.724878
v 0.220806 0.717274 0.831101
v 0.151300 0.717275 0.688158
v 0.114014 0.846576 0.794660
v 0.151300 0.717275 0.688158
v 0.220806 0.717274 0.831101
v 0.114014 0.846576 0.794660
v 0.220806 0.717274 0.831101
v 0.257524 0.846576 0.724878
v 0.151300 0.717275 0.688158
v 0.114014 0.846576 0.794660
v 0.257524 0.846576 0.724878
v 0.000000 0.291012 0.805663
v -0.093262 0.368161 0.747558
v 0.093262 0.368161 0.747558
v 0.000000 0.431149 0.858398
v 0.093262 0.368161 0.747558
v -0.093262 0.368161 0.747558
v 0.000000 0.730472 -0.846191
v 0.000000 0.583010 -0.462402
v 0.000000 0.485355 -0.761719
v 0.000000 0.371584 -0.461915
v 0.000000 0.705568 -0.473632
v 0.000000 0.914062 0.066408
v 0.000000 0.583010 -0.462402
v 0.000000 0.764648 0.185548
v 0.000000 0.305178 -0.463380
v 0.000000 0.117676 0.008299
v 0.000000 0.371584 -0.461915
v 0.000000 0.193847 0.157225
v -0.200684 0.470214 0.164551
v -0.198730 0.430662 0.487304
v 0.000000 0.193847 0.157225
v -0.136230 0.240232 0.591308
v 0.200684 0.470214 0.164551
v 0.000000 0.193847 0.157225
v 0.198730 0.430662 0.487304
v 0.136230 0.240232 0.591308
v -0.200684 0.470214 0.164551
v 0.000000 0.764648 0.185548
v -0.198730 0.430662 0.487304
v 0.000000 0.644040 0.630860
v 0.200684 0.470214 0.164551
v 0.198730 0.430662 0.487304
v 0.000000 0.764648 0.185548
v 0.000000 0.644040 0.630860
v -0.198730 0.430662 0.487304
v 0.000000 0.644040 0.630860
v -0.093262 0.368161 0.747558
v 0.000000 0.431149 0.858398
v 0.198730 0.430662 0.487304
v 0.093262 0.368161 0.747558
v 0.000000 0.644040 0.630860
v 0.000000 0.431149 0.858398
v 0.000000 0.371584 -0.461915
v 0.000000 0.218754 -0.867189
v 0.000000 0.485355 -0.761719
v 0.000000 0.193847 0.157225
v -0.136230 0.240232 0.591308
v 0.136230 0.240232 0.591308
v 0.000000 0.291012 0.805663
v -0.200684 0.470214 0.164551
v 0.000000 0.371584 -0.461915
v 0.000000 0.583010 -0.462402
v 0.200684 0.470214 0.164551
v 0.000000 0.583010 -0.462402
v 0.000000 0.371584 -0.461915
v 0.200684 0.470214 0.164551
v 0.000000 0.764648 0.185548
v 0.000000 0.583010 -0.462402
v -0.200684 0.470214 0.164551
v 0.000000 0.583010 -0.462402
v 0.000000 0.764648 0.185548
v -0.200684 0.470214 0.164551
v 0.000000 0.193847 0.157225
v 0.000000 0.371584 -0.461915
v 0.200684 0.470214 0.164551
v 0.000000 0.371584 -0.461915
v 0.000000 0.193847 0.157225
v 0.000000 0.291012 0.805663
v -0.136230 0.240232 0.591308
v -0.093262 0.368161 0.747558
v 0.000000 0.291012 0.805663
v 0.093262 0.368161 0.747558
v 0.136230 0.240232 0.591308
v -0.093262 0.368161 0.747558
v -0.136230 0.240232 0.591308
v -0.198730 0.430662 0.487304
v 0.093262 0.368161 0.747558
v 0.198730 0.430662 0.487304
v 0.136230 0.240232 0.591308
v 0.000000 0.730472 -0.846191
v 0.000000 0.485355 -0.761719
v 0.000000 0.583010 -0.462402
v 0.000000 0.371584 -0.461915
v 0.000000 0.705568 -0.473632
v 0.000000 0.583010 -0.462402
v 0.000000 0.914062 0.066408
v 0.000000 0.764648 0.185548
v 0.000000 0.305178 -0.463380
v 0.000000 0.371584 -0.461915
v 0.000000 0.117676 0.008299
v 0.000000 0.193847 0.157225
v 0.000000 0.371584 -0.461915
v 0.000000 0.485355 -0.761719
v 0.000000 0.218754 -0.867189
v 0.336787 0.162356 0.194855
v -0.000056 0.192955 0.157179
v 0.347606 0.182984 0.358346
v 0.136329 0.239559 0.591409
v 0.336787 0.162356 0.194855
v 0.347606 0.182984 0.358346
v -0.000056 0.192955 0.157179
v 0.136329 0.239559 0.591409
v -0.336299 0.162357 0.194856
v -0.347118 0.182984 0.358347
v 0.000544 0.192955 0.157179
v -0.135840 0.239559 0.591409
v -0.336299 0.162357 0.194856
v 0.000544 0.192955 0.157179
v -0.347118 0.182984 0.358347
v -0.135840 0.239559 0.591409
vt 0.555266 0.317131
vt 0.879145 0.404709
vt 0.998009 0.181343
vt 0.557947 0.316944
vt 0.693608 0.007958
vt 0.996257 0.181340
vt 0.555266 0.317131
vt 0.694904 0.004893
vt 0.998009 0.181343
vt 0.877374 0.407371
vt 0.694904 0.004893
vt 0.559339 0.309184
vt 0.565717 0.761815
vt 0.565717 0.761815
vt 0.565717 0.761815
vt 0.565717 0.761815
vt 0.565717 0.761815
vt 0.565717 0.761815
vt 0.293125 0.242192
vt 0.378555 0.023882
vt 0.230994 0.070663
vt 0.161096 0.242192
vt 0.495053 0.546267
vt 0.363023 0.234395
vt 0.293125 0.242192
vt 0.401855 0.616438
vt 0.005767 0.515080
vt 0.114497 0.242192
vt 0.161096 0.242192
vt 0.044599 0.600844
vt 0.199928 0.787967
vt 0.215461 0.600844
vt 0.044599 0.600844
vt 0.075665 0.850341
vt 0.044599 0.600844
vt 0.215461 0.600844
vt 0.199928 0.787967
vt 0.075665 0.850341
vt 0.401855 0.616438
vt 0.215461 0.600844
vt 0.199928 0.787967
vt 0.324191 0.873732
vt 0.199928 0.787967
vt 0.215461 0.600844
vt 0.401855 0.616438
vt 0.324191 0.873732
vt 0.324191 0.873732
vt 0.199928 0.787967
vt 0.153330 0.936106
vt 0.199928 0.998480
vt 0.153330 0.936106
vt 0.199928 0.787967
vt 0.324191 0.873732
vt 0.199928 0.998480
vt 0.060132 0.008288
vt 0.161096 0.242192
vt 0.230994 0.070663
vt 0.305830 0.906116
vt 0.305830 0.906116
vt 0.305830 0.906116
vt 0.305830 0.906116
vt 0.161096 0.242192
vt 0.215461 0.600844
vt 0.293125 0.242192
vt 0.293125 0.242192
vt 0.215461 0.600844
vt 0.161096 0.242192
vt 0.401855 0.616438
vt 0.215461 0.600844
vt 0.293125 0.242192
vt 0.293125 0.242192
vt 0.215461 0.600844
vt 0.401855 0.616438
vt 0.044599 0.600844
vt 0.215461 0.600844
vt 0.161096 0.242192
vt 0.161096 0.242192
vt 0.215461 0.600844
vt 0.044599 0.600844
vt 0.075665 0.850341
vt 0.106731 0.967293
vt 0.153330 0.936106
vt 0.153330 0.936106
vt 0.106731 0.967293
vt 0.075665 0.850341
vt 0.075665 0.850341
vt 0.153330 0.936106
vt 0.199928 0.787967
vt 0.199928 0.787967
vt 0.153330 0.936106
vt 0.075665 0.850341
vt 0.230994 0.070663
vt 0.378555 0.023882
vt 0.293125 0.242192
vt 0.161096 0.242192
vt 0.293125 0.242192
vt 0.363023 0.234395
vt 0.495053 0.546267
vt 0.401855 0.616438
vt 0.161096 0.242192
vt 0.114497 0.242192
vt 0.005767 0.515080
vt 0.044599 0.600844
vt 0.230994 0.070663
vt 0.161096 0.242192
vt 0.060132 0.008288
vt 0.992106 0.444908
vt 0.906675 0.897122
vt 0.720281 0.928309
vt 0.502820 0.671015
vt 0.720281 0.928309
vt 0.906675 0.897122
vt 0.992106 0.444908
vt 0.502820 0.671015
vt 0.728046 0.928309
vt 0.906675 0.897122
vt 0.992106 0.437112
vt 0.502820 0.671015
vt 0.992106 0.437112
vt 0.906675 0.897122
vt 0.728046 0.928309
vt 0.502820 0.671015
vn -0.7662 0.5236 0.3726
vn 0.7645 0.5266 -0.3717
vn -0.3726 -0.5236 -0.7662
vn 0.3726 -0.5236 0.7662
vn 0.0000 0.6016 0.7988
vn 0.0000 -0.8694 0.4941
vn -1.0000 0.0000 0.0000
vn 1.0000 0.0000 0.0000
vn -0.8082 -0.5851 -0.0668
vn -0.8797 -0.4153 -0.2317
vn 0.8082 -0.5851 -0.0668
vn 0.8797 -0.4153 -0.2317
vn -0.8265 0.5581 0.0734
vn -0.7747 0.6103 0.1653
vn 0.8265 0.5581 0.0734
vn 0.7747 0.6103 0.1653
vn -0.7870 0.4463 0.4261
vn -0.7938 0.4441 0.4155
vn 0.7870 0.4463 0.4261
vn 0.7938 0.4441 0.4155
vn 0.0000 -0.9943 0.1063
vn 0.0000 -0.9731 0.2305
vn -0.9524 -0.0007 -0.3050
vn 0.9524 -0.0007 -0.3050
vn 0.8106 0.5638 -0.1580
vn -0.8106 0.5638 -0.1580
vn -0.8001 -0.5766 -0.1655
vn 0.8001 -0.5766 -0.1655
vn -0.7078 -0.4386 0.5537
vn 0.7078 -0.4386 0.5537
vn -0.9300 -0.1144 0.3494
vn 0.9300 -0.1144 0.3494
vn -0.1042 -0.9859 0.1313
vn -0.1092 -0.9841 0.1399
vn 0.1042 0.9859 -0.1313
vn 0.1092 0.9841 -0.1399
vn 0.1042 -0.9859 0.1313
vn 0.1092 -0.9841 0.1399
vn -0.1042 0.9859 -0.1313
vn -0.1092 0.9841 -0.1399
usemtl Material
s off
f 2/1/1 1/2/1 3/3/1
f 5/4/2 4/5/2 6/6/2
f 8/7/3 7/8/3 9/9/3
f 11/10/4 10/11/4 12/12/4
f 14/13/5 13/14/5 15/15/5
f 17/16/6 16/17/6 18/18/6
f 20/19/7 19/20/7 21/21/7
f 20/19/7 21/21/7 22/22/7
f 24/23/7 23/24/7 25/25/7
f 24/23/7 25/25/7 26/26/7
f 28/27/8 27/28/8 29/29/8
f 28/27/8 29/29/8 30/30/8
f 32/31/9 31/32/9 33/33/9
f 32/31/10 33/33/10 34/34/10
f 36/35/11 35/36/11 37/37/11
f 36/35/12 37/37/12 38/38/12
f 40/39/13 39/40/13 41/41/13
f 40/39/14 41/41/14 42/42/14
f 44/43/15 43/44/15 45/45/15
f 44/43/16 45/45/16 46/46/16
f 48/47/17 47/48/17 49/49/17
f 48/47/18 49/49/18 50/50/18
f 52/51/19 51/52/19 53/53/19
f 52/51/20 53/53/20 54/54/20
f 56/55/7 55/56/7 57/57/7
f 59/58/21 58/59/21 60/60/21
f 59/58/22 60/60/22 61/61/22
f 63/62/23 62/63/23 64/64/23
f 66/65/24 65/66/24 67/67/24
f 69/68/25 68/69/25 70/70/25
f 72/71/26 71/72/26 73/73/26
f 75/74/27 74/75/27 76/76/27
f 78/77/28 77/78/28 79/79/28
f 81/80/29 80/81/29 82/82/29
f 84/83/30 83/84/30 85/85/30
f 87/86/31 86/87/31 88/88/31
f 90/89/32 89/90/32 91/91/32
f 93/92/8 92/93/8 94/94/8
f 93/92/8 94/94/8 95/95/8
f 97/96/8 96/97/8 98/98/8
f 97/96/8 98/98/8 99/99/8
f 101/100/7 100/101/7 102/102/7
f 101/100/7 102/102/7 103/103/7
f 105/104/8 104/105/8 106/106/8
f 108/107/33 107/108/33 109/109/33
f 108/107/34 109/109/34 110/110/34
f 112/111/35 111/112/35 113/113/35
f 112/111/36 113/113/36 114/114/36
f 116/115/37 115/116/37 117/117/37
f 116/115/38 117/117/38 118/118/38
f 120/119/39 119/120/39 121/121/39
f 120/119/40 121/121/40 122/122/40
